<svg width="60" height="60" viewBox="0 0 60 60" fill="none" xmlns="http://www.w3.org/2000/svg">
<path d="M42.1038 19.2856H17.8962L30 29.6604L42.1038 19.2856Z" fill="white"/>
<path d="M30 32.1429C29.7442 32.1429 29.4967 32.0514 29.3026 31.8845L16.0714 20.5435V40.7143H43.9286V20.5435L30.6974 31.8845C30.5033 32.0514 30.2558 32.1429 30 32.1429Z" fill="white"/>
<path d="M30 0C13.4316 0 0 13.4316 0 30C0 46.5684 13.4316 60 30 60C46.5684 60 60 46.5684 60 30C59.9812 13.4394 46.5606 0.0188337 30 0ZM46.0714 41.7857C46.0714 42.3774 45.5917 42.8571 45 42.8571H15C14.4083 42.8571 13.9286 42.3774 13.9286 41.7857V18.2143C13.9286 17.6226 14.4083 17.1429 15 17.1429H45C45.5917 17.1429 46.0714 17.6226 46.0714 18.2143V41.7857Z" fill="white"/>
</svg>
