<svg width="68" height="67" viewBox="0 0 68 67" fill="none" xmlns="http://www.w3.org/2000/svg">
<g clip-path="url(#clip0)" filter="url(#filter0_d)">
<path d="M34 1.25C17.425 1.25 4 14.45 4 30.73C4 43.7575 12.595 54.805 24.5125 58.7C26.0125 58.9775 26.5625 58.065 26.5625 57.2825C26.5625 56.5825 26.5375 54.7275 26.525 52.27C18.18 54.0475 16.42 48.315 16.42 48.315C15.055 44.9125 13.0825 44.0025 13.0825 44.0025C10.365 42.175 13.2925 42.2125 13.2925 42.2125C16.305 42.4175 17.8875 45.25 17.8875 45.25C20.5625 49.7575 24.91 48.455 26.625 47.7025C26.895 45.795 27.6675 44.4975 28.525 43.76C21.8625 43.0225 14.86 40.4875 14.86 29.1925C14.86 25.975 16.0225 23.345 17.9475 21.2825C17.61 20.5375 16.5975 17.54 18.21 13.48C18.21 13.48 20.7225 12.69 26.46 16.5025C28.86 15.8475 31.41 15.5225 33.96 15.5075C36.51 15.5225 39.06 15.8475 41.46 16.5025C47.16 12.69 49.6725 13.48 49.6725 13.48C51.285 17.54 50.2725 20.5375 49.9725 21.2825C51.885 23.345 53.0475 25.975 53.0475 29.1925C53.0475 40.5175 46.035 43.01 39.36 43.735C40.41 44.62 41.385 46.4275 41.385 49.19C41.385 53.135 41.3475 56.305 41.3475 57.2625C41.3475 58.035 41.8725 58.9575 43.41 58.6625C55.4125 54.7925 64 43.7375 64 30.73C64 14.45 50.5675 1.25 34 1.25Z" fill="white"/>
</g>
<defs>
<filter id="filter0_d" x="0" y="0" width="68" height="68" filterUnits="userSpaceOnUse" color-interpolation-filters="sRGB">
<feFlood flood-opacity="0" result="BackgroundImageFix"/>
<feColorMatrix in="SourceAlpha" type="matrix" values="0 0 0 0 0 0 0 0 0 0 0 0 0 0 0 0 0 0 127 0"/>
<feOffset dy="4"/>
<feGaussianBlur stdDeviation="2"/>
<feColorMatrix type="matrix" values="0 0 0 0 0 0 0 0 0 0 0 0 0 0 0 0 0 0 0.25 0"/>
<feBlend mode="normal" in2="BackgroundImageFix" result="effect1_dropShadow"/>
<feBlend mode="normal" in="SourceGraphic" in2="effect1_dropShadow" result="shape"/>
</filter>
<clipPath id="clip0">
<rect width="60" height="60" fill="white" transform="translate(4)"/>
</clipPath>
</defs>
</svg>
